<?xml version="1.0" encoding="UTF-8"?><svg xmlns="http://www.w3.org/2000/svg" viewBox="0 0 14.51 10.87"><defs><style>.e{fill:#95999e;}</style></defs><g id="a"/><g id="b"><g id="c"><g id="d"><g><path class="e" d="M7.26,0c1.61,0,3.22,0,4.84,0,.81,0,1.47,.31,1.96,.96,.28,.37,.44,.79,.44,1.26,.01,1.04,0,2.08,0,3.13,0,1.06,0,2.13,0,3.19,0,1.11-.74,2.03-1.8,2.27-.2,.05-.4,.06-.61,.06-3.23,0-6.46,0-9.69,0-1.25,0-2.19-.8-2.39-2.01-.02-.11-.02-.21-.02-.32,0-2.07,0-4.13,0-6.2C0,1.23,.75,.3,1.8,.07,2.01,.02,2.24,0,2.46,0,4.06,0,5.66,0,7.26,0Zm-.02,10.19c1.61,0,3.22,0,4.84,0,1.05,0,1.75-.69,1.75-1.74,0-2.01,0-4.02,0-6.02,0-1.05-.7-1.74-1.75-1.74-3.22,0-6.44,0-9.66,0-.1,0-.2,0-.31,.01-.84,.11-1.44,.8-1.44,1.69,0,2.04,0,4.07,0,6.11,0,.09,0,.18,.02,.27,.11,.83,.8,1.43,1.68,1.43,1.62,0,3.25,0,4.87,0Z"/><path class="e" d="M9.4,5.52c.29,.28,.53,.5,.76,.73,.82,.78,1.65,1.56,2.47,2.34,.2,.19,.22,.37,.07,.53-.15,.16-.34,.17-.53,0-.29-.27-.57-.54-.86-.81-.75-.71-1.5-1.42-2.25-2.13-.04-.04-.09-.08-.14-.13-.05,.04-.09,.08-.14,.12-.41,.4-.82,.8-1.24,1.2-.24,.23-.4,.23-.64,0-.4-.39-.81-.79-1.21-1.18-.04-.04-.09-.08-.14-.13-.05,.05-.1,.09-.15,.13-.96,.91-1.93,1.83-2.89,2.74-.07,.06-.13,.13-.2,.19-.18,.16-.38,.15-.53-.02-.13-.15-.11-.33,.06-.5,.78-.74,1.57-1.49,2.35-2.23,.28-.27,.56-.53,.89-.84-.07-.04-.14-.07-.18-.11-1.01-.98-2.02-1.97-3.04-2.96-.05-.05-.11-.1-.15-.16-.09-.12-.08-.28,.02-.4,.12-.14,.3-.18,.43-.09,.07,.04,.13,.1,.18,.16,1.57,1.52,3.13,3.05,4.7,4.58,.05,.05,.1,.1,.16,.16,.06-.05,.11-.09,.16-.14,1.57-1.53,3.14-3.06,4.71-4.59,.05-.05,.1-.1,.16-.14,.15-.11,.32-.09,.45,.05,.13,.14,.14,.31,0,.45-.28,.29-.57,.57-.86,.85-.77,.75-1.53,1.49-2.3,2.24-.04,.04-.1,.06-.17,.1Z"/></g></g></g></g></svg>