<?xml version="1.0" encoding="UTF-8"?><svg xmlns="http://www.w3.org/2000/svg" viewBox="0 0 11.27 11.27"><g id="a"/><g id="b"><g id="c"><g id="d"><path d="M2.36,0c.94,.4,1.59,1.11,2.1,1.96,.13,.22,.22,.46,.2,.73-.01,.14-.07,.26-.18,.34-.19,.16-.39,.31-.59,.46-.16,.11-.33,.21-.49,.32-.38,.27-.47,.58-.35,1.03,.09,.32,.25,.6,.46,.84,.33,.38,.66,.75,1.01,1.1,.34,.34,.69,.66,1.06,.98,.28,.24,.6,.43,.97,.49,.35,.06,.66-.03,.87-.34,.17-.25,.34-.51,.52-.77,.08-.11,.17-.21,.26-.31,.18-.21,.41-.25,.67-.19,.35,.09,.64,.27,.92,.48,.48,.37,.91,.79,1.24,1.3,.07,.1,.12,.22,.18,.33,.11,.22,.07,.42-.06,.62-.17,.28-.39,.52-.65,.73-.45,.37-.91,.72-1.37,1.09-.09,.07-.17,.08-.27,.07-.59-.05-1.15-.22-1.7-.43-1.24-.48-2.39-1.13-3.45-1.94-.72-.55-1.29-1.22-1.79-1.97-.67-1-1.23-2.06-1.62-3.21C.16,3.32,.06,2.92,.02,2.51,.01,2.49,0,2.47,0,2.44v-.2s.04-.06,.07-.09c.36-.46,.71-.93,1.09-1.38,.28-.33,.59-.62,1-.78h.2Z"/></g></g></g></svg>