<svg xmlns="http://www.w3.org/2000/svg" viewBox="0 0 25.7 25.69"><defs><style>.cls-1{fill:#7f7f7f;}</style></defs><g id="Capa_2" data-name="Capa 2"><g id="Capa_1-2" data-name="Capa 1"><path class="cls-1" d="M13,0A12.85,12.85,0,1,0,25.7,13,12.8,12.8,0,0,0,13,0Zm8.24,13.75a6.5,6.5,0,0,1-5.36,4.74,27.27,27.27,0,0,1-4.43,0,2.83,2.83,0,0,0-1.24.23c-1.1.6-2.16,1.28-3.44,2.06.14-1.33.31-2.45.34-3.57a2.07,2.07,0,0,0-.44-1.35A6.45,6.45,0,0,1,8.91,5.36c3.79-1.6,7.41-1.29,10.58,1.49A6.17,6.17,0,0,1,21.27,13.75Z"/></g></g></svg>