<?xml version="1.0" encoding="UTF-8"?><svg xmlns="http://www.w3.org/2000/svg" xmlns:xlink="http://www.w3.org/1999/xlink" viewBox="0 0 53.96 43.42"><defs><style>.i{fill:url(#f);}.j{fill:url(#g);}.k{fill:url(#h);}.l{fill:url(#e);}</style><linearGradient id="e" x1="0" y1="33.6" x2="53.96" y2="33.6" gradientTransform="matrix(1, 0, 0, 1, 0, 0)" gradientUnits="userSpaceOnUse"><stop offset="0" stop-color="#00aff1"/><stop offset=".44" stop-color="#05b1ef"/><stop offset=".96" stop-color="#13b7ea"/><stop offset="1" stop-color="#15b8ea"/></linearGradient><linearGradient id="f" x1="24.33" y1="19.25" x2="47.32" y2="19.25" xlink:href="#e"/><linearGradient id="g" x1="29.27" y1="6.56" x2="42.4" y2="6.56" xlink:href="#e"/><linearGradient id="h" x1="6.24" y1="37.48" x2="9.3" y2="37.48" xlink:href="#e"/></defs><g id="a"/><g id="b"><g id="c"><g id="d"><g><path class="l" d="M10.38,26.34c.91-.19,1.76-.34,2.57-.78,2.34-1.27,4.86-1.39,7.43-.92,1.87,.34,3.58,1.1,5.29,1.9,1.12,.53,2.26,1.02,3.4,1.5,.25,.1,.54,.16,.8,.15,2.76-.14,5.5-.01,8.18,.66,.72,.18,1.4,.52,2.1,.76,.15,.05,.33,.08,.48,.04,1.12-.29,2.24-.59,3.36-.9,.16-.05,.32-.13,.47-.21,1.37-.75,2.73-1.5,4.1-2.25,.91-.5,1.86-.72,2.89-.52,1.86,.36,2.89,2.05,2.36,3.88-.27,.94-.81,1.71-1.58,2.3-2.52,1.93-5.05,3.85-7.58,5.77-1.14,.87-2.44,1.41-3.77,1.9-2.54,.93-5.08,1.87-7.6,2.83-1.75,.67-3.5,.74-5.33,.34-3.55-.78-7.13-1.45-10.69-2.19-1.21-.25-2.42-.42-3.64-.16-.15,.03-.32,.12-.41,.24-.33,.47-.75,.78-1.31,.93-2.18,.58-4.35,1.17-6.52,1.75-.86,.23-1.43-.12-1.64-.99-1.23-5.04-2.46-10.07-3.68-15.11-.22-.91,.11-1.46,1.02-1.7,2.1-.56,4.19-1.13,6.29-1.69,1.36-.36,2.45,.3,2.79,1.66,.06,.26,.13,.51,.21,.81Zm31.48,5.55c.52,2.39-.85,3.6-2.42,4.06-.63,.18-1.31,.35-1.96,.31-1.94-.11-3.88-.31-5.81-.49-1.3-.12-2.59-.24-3.87,.25-.85,.33-1.69-.46-1.55-1.36,.08-.51,.41-.82,.87-1,1.44-.57,2.93-.52,4.42-.37,1.39,.14,2.78,.35,4.17,.48,1.03,.1,2.08,.16,3.09-.2,.8-.28,.96-.8,.42-1.47-.16-.2-.39-.36-.62-.48-.27-.14-.57-.23-.86-.3-2.52-.63-5.08-.81-7.66-.65-.61,.04-1.2,.01-1.76-.24-1.57-.7-3.14-1.4-4.7-2.11-1.66-.76-3.37-1.33-5.21-1.43-1.66-.09-3.25,.16-4.68,1.06-.42,.26-.84,.45-1.32,.52-.48,.08-.95,.19-1.44,.29l2.28,9.23c.18-.01,.33,0,.47-.03,1.1-.19,2.19-.13,3.29,.1,3.84,.79,7.69,1.52,11.52,2.34,1.35,.29,2.63,.25,3.92-.25,2.29-.88,4.59-1.72,6.89-2.58,1.17-.44,2.39-.78,3.42-1.52,2.16-1.54,4.32-3.08,6.45-4.67,.64-.47,1.2-1.06,1.75-1.63,.22-.22,.38-.52,.48-.82,.15-.43-.05-.75-.5-.73-.41,.02-.85,.11-1.21,.29-1.38,.72-2.73,1.5-4.11,2.23-.35,.19-.73,.32-1.11,.44-.87,.25-1.74,.48-2.64,.72ZM2.65,27.68l3.17,13.01,5.22-1.41-3.21-12.99-5.17,1.39Z"/><path class="i" d="M35.85,24.3c-2.55,0-5.1,0-7.64,0-1.88,0-3.31-1.06-3.75-2.75-.34-1.32,.01-2.48,.83-3.52,.9-1.16,2.12-1.9,3.44-2.47,2.66-1.15,5.46-1.48,8.34-1.32,2.16,.12,4.25,.55,6.22,1.48,1.27,.6,2.42,1.36,3.25,2.53,1.39,1.96,.91,4.41-1.08,5.58-.64,.38-1.34,.5-2.07,.48-.03,0-.05,0-.08,0-2.48,0-4.96,0-7.44,0Zm-.06-2.59c1.71,0,3.41,0,5.12,0,.88,0,1.76,.01,2.64,0,.93-.02,1.43-.86,1.01-1.68-.13-.24-.29-.51-.5-.66-.69-.49-1.37-1.03-2.13-1.38-2.12-.98-4.4-1.23-6.71-1.16-2.2,.07-4.33,.44-6.26,1.54-.62,.36-1.17,.87-1.68,1.38-.36,.36-.47,.87-.21,1.37,.25,.48,.69,.61,1.21,.61,2.51,0,5.01,0,7.52,0Z"/><path class="j" d="M29.27,6.56c0-3.64,2.92-6.56,6.56-6.56,3.63,0,6.58,2.95,6.57,6.55,0,3.62-2.95,6.57-6.57,6.57-3.62,0-6.56-2.94-6.56-6.57Zm10.52-.02c0-2.19-1.8-3.97-3.98-3.95-2.16,.01-3.94,1.8-3.94,3.96,0,2.19,1.78,3.97,3.97,3.97,2.19,0,3.96-1.78,3.96-3.97Z"/><path class="k" d="M7.79,35.95c.85,0,1.52,.68,1.52,1.53,0,.86-.69,1.54-1.56,1.53-.84-.01-1.52-.71-1.5-1.55,.01-.85,.7-1.51,1.55-1.5Z"/></g></g></g></g></svg>