<?xml version="1.0" encoding="UTF-8"?><svg xmlns="http://www.w3.org/2000/svg" xmlns:xlink="http://www.w3.org/1999/xlink" viewBox="0 0 69.71 47.81"><defs><style>.g{fill:url(#f);}.h{fill:url(#e);}</style><linearGradient id="e" x1="0" y1="23.9" x2="53.94" y2="23.9" gradientTransform="matrix(1, 0, 0, 1, 0, 0)" gradientUnits="userSpaceOnUse"><stop offset="0" stop-color="#00aff1"/><stop offset=".44" stop-color="#05b1ef"/><stop offset=".96" stop-color="#13b7ea"/><stop offset="1" stop-color="#15b8ea"/></linearGradient><linearGradient id="f" x1="42.78" y1="16.96" x2="69.71" y2="16.96" xlink:href="#e"/></defs><g id="a"/><g id="b"><g id="c"><g id="d"><g><path class="h" d="M11.13,33.56c2.47,6.34,10.74,11.97,17.62,11.96-.93-3.19,.31-5.84,2.36-8.07,1.01-1.09,2.55-1.68,3.81-2.55,.81-.55,1.83-1.03,2.29-1.82,2.42-4.17,5.6-4.44,8.65-.74,.67,.81,1.94,1.84,2.71,1.68,.91-.19,1.76-1.45,2.29-2.44,.56-1.04,.6-2.35,1.07-3.46,.23-.55,.92-.9,1.4-1.34,.21,.56,.68,1.17,.6,1.69-1.48,9.35-9.75,17.52-19.11,18.98-11.01,1.72-20.53-3.05-25.74-12.94-.45-.85-.92-1.23-1.92-1.4-1.46-.24-2.95-.68-4.28-1.33C.03,30.4-.87,27.58,.93,24.97c1.25-1.82,3-3.33,4.72-4.76,.94-.78,1.56-1.53,1.88-2.72C11.3,3.47,27.26-3.97,40.36,2.17c.83,.39,2.48,.57,1.87,1.97-.7,1.61-1.85,.2-2.78-.08-1.6-.48-3.19-1.01-4.79-1.5-1.28-.39-2.27,.25-2.71,1.29-.26,.63-.09,1.76,.35,2.3,2.87,3.63,2.86,4.62-.87,7.9-1.65,1.45-2.43,3.16-1.98,5.4,.19,.95,.27,2.03,0,2.93-.34,1.17-.85,2.45-1.68,3.29-1.95,1.97-8.19,2.3-10.33,.52-.75-.62-1.26-1.93-1.29-2.94-.02-1.01,.54-2.14,1.13-3.03,.98-1.49,.96-2.78-.2-4.1-1.42-1.61-4.06-2.64-5.42-2-.47,.22-.93,.73-1.14,1.21-2.1,4.87-2.31,9.85-.88,14.95,.34,1.2,1.15,1.1,2.02,1.06,6.19-.29,12.16-1.68,17.9-3.95,4.03-1.59,7.9-3.58,11.84-5.39,.1-.05,.19-.13,.3-.18,.76-.37,1.67-1.09,2.19,.07,.16,.35-.55,1.42-1.1,1.71-2.75,1.47-5.54,2.9-8.4,4.15-7.16,3.12-14.57,5.3-22.43,5.67-.27,.01-.53,.08-.82,.13Zm1.56-22.1c1.48,.58,2.8,.91,3.92,1.57,3.05,1.79,5.03,5.15,2.33,8.56-.25,.31-.39,.71-.53,1.09-.42,1.14-.15,1.98,1.16,2.16,1.14,.15,2.3,.28,3.45,.26,3.42-.07,4.85-1.42,4.33-4.74-.58-3.72,.64-6.47,3.5-8.65,1.51-1.15,1.46-2.19,.23-3.55-1.53-1.69-2.36-3.62-.76-6.03-7.54,.37-13.3,3.44-17.62,9.32Zm35.29,25.44c-1.37-1.13-2.79-2.01-3.85-3.21-2.19-2.49-3.27-2.35-5.07,.52-.68,1.08-1.85,2.22-3.02,2.56-2.86,.84-4.32,2.8-5.18,5.37-.88,2.63,.14,3.76,2.79,3.32,.29-.05,.58-.08,.86-.13,5.69-1.16,10.27-4.03,13.46-8.43ZM6.3,21.87c-1.42,1.68-2.79,2.93-3.65,4.47-.4,.72-.2,2.44,.38,2.9,1.2,.96,2.83,1.38,4.4,2.07l-1.13-9.44Z"/><path class="g" d="M56.2,19.5c-2.07,.54-3.21,1.58-3.37,3.61-.09,1.18-2.7,3.29-3.86,3.15-.41-.05-1.06-.65-1.07-1.02-.08-3.62-1.5-6.38-4.75-8.17-.32-.18-.49-1.2-.29-1.61,.53-1.05,3.59-2.2,4.59-1.67,1.87,.97,3.3,.34,4.85-1-2.37-1.57-4.71-3.11-7.03-4.66-1.81-1.21-1.7-1.7,.05-2.94,1.82-1.29,3.44-1.35,5.44-.37,2.38,1.17,4.99,1.86,7.38,3.01,1.41,.68,2.47,.5,3.65-.32,1.66-1.15,3.45-1.84,5.55-1.3,2.09,.54,2.94,1.8,1.91,3.7-.76,1.4-1.91,2.84-3.26,3.58-1.87,1.02-2.56,2.32-2.76,4.32-.3,2.99-.83,5.96-1.3,8.93-.18,1.14-3.11,3.37-4.17,3.02-.49-.16-1-1.04-1.05-1.63-.26-2.82-.36-5.66-.52-8.62Zm11.26-11.16c-.83-.04-1.54-.23-2.17-.08-.82,.21-1.68,.55-2.34,1.07-1.85,1.47-3.63,1.46-5.74,.45-2.6-1.25-5.34-2.21-8.05-3.23-.55-.21-1.21-.09-1.82-.13,2.21,1.94,4.43,3.41,6.65,4.87,2.19,1.45,2.17,1.92-.17,3.27-.65,.38-1.36,.68-1.95,1.14-1.32,1.02-2.66,1.16-4.18,.44-.54-.26-1.25-.16-1.88-.22l-.27,.55c3.09,1.31,4.21,3.8,4.39,6.99,.54-.58,.98-1.14,1.02-1.73,.12-1.69,.95-2.76,2.48-3.4,.64-.27,1.21-.67,1.81-1.02,2.51-1.45,2.86-1.27,3.08,1.64,.06,.81,.04,1.62,.1,2.43,.12,1.8,.27,3.6,.4,5.4l.53,.11c.23-.57,.59-1.13,.68-1.72,.49-3.03,1.08-6.06,1.31-9.11,.15-1.96,.98-3.04,2.66-3.83,1.57-.73,3.13-1.6,3.45-3.9Z"/></g></g></g></g></svg>