<?xml version="1.0" encoding="UTF-8"?><svg xmlns="http://www.w3.org/2000/svg" viewBox="0 0 293.54 260.69"><defs><style>.d{fill:#f7f7f7;}</style></defs><g id="a"/><g id="b"><g id="c"><g><path class="d" d="M95.69,40.27c-1.97,1.52-1.43,4.62,.93,5.38,5.18,1.69,13.73,4.49,23.07,7.52,6.72,2.19,13.86,4.51,20.45,6.66,1.37,.43,2.69,.87,3.99,1.28,6.57-2.08,12.86-4.75,18.78-8.02,11.6-6.98,22.29-13.75,32.09-20.23-25.72-1.24-67.09-3.19-69.99-3.17-2.45,0-4.81,.22-7.07,.61-3.27,.54-6.31,1.43-9.09,2.52-5.64,2.19-10.15,5.16-13.16,7.46Z"/><path class="d" d="M.05,28.73s.06,1.71,.89,7.72c1.95,14.42,8.17,28.3,18.43,38.57,15.2,15.24,49.92,24.37,84.83,17.59,11.43-2.21,22.88-6.14,33.67-12.1,4.94-2.97,9.65-5.88,14.16-8.7,18.97-11.8,34.24-22.18,46.42-30.99,22.59-16.31,34.67-27.08,40.29-31.09,22.68-16.2,46.82-8.41,53.71-3.4,1.37,1,1.47,2.99,.2,4.12-6.33,5.49-32.14,27.58-50.89,43.63-11.56,9.87-20.43,17.43-20.43,17.43,0,0-.69,.87-.8,1.39-1.84,10-3.66,19.97-5.49,29.94-.33,1.76-.63,3.49-.95,5.23-2.21,12.29-4.47,24.59-6.7,36.88-.59,3.12-1.13,6.27-1.69,9.39-1.58,8.76-3.17,17.48-4.81,26.24-1.28,6.92-4.12,13.18-9.02,18.28-2.04,2.08-4.58,3.66-6.9,5.44-.93,.74-1.89,1.43-2.86,2.13-1,.69-2.26,.39-2.75-.72-.54-1.21-.98-2.54-1.06-3.84-.43-5.46-.69-10.91-1.04-16.35-.59-8.56-1.17-17.15-1.73-25.74-.35-5.01-.69-10.02-1.04-15.05v-.02c-.26-3.62-.5-7.22-.74-10.84-.5-7.44-1-14.83-1.52-22.27-.02-.26-.11-.54-.15-.89-2.17,1.71-16.33,11.25-23.9,20.53-1.39,1.71-2.58,3.43-3.43,5.1-11.69,23.18-16.57,50.96-7.91,75.41,6.9,19.45,23.85,39.57,59.72,46.99,7.38,1.01,14.87,1.66,22.47,1.94H0L.05,28.73Z"/></g></g></g></svg>