<?xml version="1.0" encoding="UTF-8"?><svg xmlns="http://www.w3.org/2000/svg" viewBox="0 0 68.45 57.5"><defs><style>.d{fill:#f7f7f7;}</style></defs><g id="a"/><g id="b"><g id="c"><path class="d" d="M0,16.38c1.54-1.6,3.07-3.19,4.6-4.77,3.46-3.59,6.91-7.18,10.38-10.76C15.49,.32,16.12,0,16.9,0,28.85,0,40.79,0,52.73,0c.32,0,.54,.1,.76,.33,4.3,4.57,8.62,9.12,12.91,13.7,.74,.79,1.35,1.7,2.05,2.58-11.28,13.67-22.55,27.33-33.74,40.89-.62-.56-1.32-1.05-1.84-1.67-7.85-9.39-15.67-18.79-23.5-28.2-3-3.6-6-7.2-9-10.81-.12-.14-.24-.29-.37-.45Zm23.02,.82c3.76,12.43,7.5,24.8,11.24,37.17h.08c3.57-12.29,7.13-24.58,10.71-36.9l-22.03-.28Zm42.99-.01c-.18,0-.26,0-.34,0-5.48,0-10.96-.02-16.44,.02-.77,0-1.58-.29-2.33,.26-.18,.13-.34,.2-.4,.43-3.35,11.53-6.7,23.06-10.05,34.59-.06,.21-.12,.42-.18,.63l.07,.03c9.87-11.96,19.74-23.92,29.67-35.95Zm-44.57,.02H2.66c9.82,11.8,19.6,23.54,29.39,35.29l.07-.03c-3.55-11.75-7.11-23.51-10.66-35.25Zm1.51-1.59h21.91c-3.59-4.56-7.14-9.08-10.71-13.62l-11.2,13.62Zm-1.96,.01L15.81,2.16,2.84,15.62H21Zm26.78,0h18.06c-4.25-4.5-8.46-8.96-12.71-13.46-1.79,4.52-3.56,8.97-5.34,13.46Zm-1.4-.55c1.8-4.55,3.58-9.01,5.36-13.51h-15.99c3.55,4.52,7.06,8.99,10.62,13.51Zm-24.28-.8L32.54,1.57h-15.34l4.89,12.7Z"/></g></g></svg>