<?xml version="1.0" encoding="UTF-8"?><svg xmlns="http://www.w3.org/2000/svg" xmlns:xlink="http://www.w3.org/1999/xlink" viewBox="0 0 52.95 52.95"><defs><style>.i{fill:url(#f);}.j{fill:url(#g);}.k{fill:url(#h);}.l{fill:url(#e);}</style><linearGradient id="e" x1="0" y1="26.47" x2="52.95" y2="26.47" gradientTransform="matrix(1, 0, 0, 1, 0, 0)" gradientUnits="userSpaceOnUse"><stop offset="0" stop-color="#00aff1"/><stop offset=".44" stop-color="#05b1ef"/><stop offset=".96" stop-color="#13b7ea"/><stop offset="1" stop-color="#15b8ea"/></linearGradient><linearGradient id="f" x1="16.65" y1="26.47" x2="36.28" y2="26.47" xlink:href="#e"/><linearGradient id="g" x1="13.77" y1="19.55" x2="25.32" y2="19.55" xlink:href="#e"/><linearGradient id="h" x1="27.62" y1="33.39" x2="39.17" y2="33.39" xlink:href="#e"/></defs><g id="a"/><g id="b"><g id="c"><g id="d"><g><path class="l" d="M26.88,0c.41,.31,.85,.57,1.22,.92,1.29,1.24,2.56,2.51,3.82,3.78,.22,.22,.41,.28,.72,.19,1.79-.49,3.59-.95,5.39-1.42,1.42-.37,2.19,.07,2.58,1.49,.49,1.79,.98,3.58,1.46,5.38,.08,.31,.22,.45,.53,.53,1.81,.48,3.62,.98,5.43,1.47,1.35,.37,1.81,1.17,1.46,2.52-.48,1.81-.94,3.63-1.44,5.44-.08,.31-.04,.5,.19,.72,1.34,1.34,2.67,2.69,4,4.04,.94,.95,.94,1.88,0,2.83-1.32,1.34-2.64,2.68-3.97,4-.25,.25-.31,.46-.21,.81,.49,1.79,.95,3.59,1.43,5.39,.35,1.35-.11,2.15-1.46,2.52-1.81,.5-3.62,.99-5.43,1.47-.31,.08-.45,.22-.53,.53-.49,1.86-1.01,3.72-1.52,5.58-.32,1.16-1.15,1.65-2.32,1.34-1.87-.48-3.73-.97-5.59-1.48-.32-.09-.5-.03-.72,.19-1.33,1.33-2.67,2.65-4,3.97-1,.99-1.9,.99-2.9,0-1.32-1.31-2.65-2.61-3.96-3.93-.25-.25-.47-.3-.81-.21-1.79,.49-3.59,.95-5.39,1.43-1.35,.35-2.14-.1-2.51-1.46-.5-1.81-.99-3.62-1.47-5.43-.08-.3-.22-.45-.53-.53-1.86-.49-3.72-1.01-5.58-1.52-1.16-.32-1.65-1.14-1.35-2.31,.48-1.85,.96-3.7,1.46-5.54,.09-.34,.04-.56-.21-.81-1.26-1.25-2.51-2.51-3.74-3.79-.35-.36-.62-.81-.92-1.22,0-.28,0-.55,0-.83,.31-.41,.57-.85,.92-1.22,1.23-1.28,2.48-2.54,3.74-3.79,.25-.25,.3-.47,.21-.81-.5-1.84-.99-3.69-1.46-5.54-.3-1.17,.19-1.99,1.35-2.31,1.86-.51,3.71-1.03,5.58-1.52,.31-.08,.45-.23,.53-.53,.48-1.81,.98-3.62,1.47-5.43,.37-1.36,1.16-1.82,2.51-1.46,1.8,.47,3.6,.93,5.39,1.43,.34,.09,.56,.05,.81-.21,1.25-1.26,2.51-2.51,3.79-3.74,.36-.35,.81-.62,1.22-.92h.83ZM4.1,26.37c.24,.25,.34,.37,.45,.48,1.15,1.16,2.3,2.33,3.46,3.49,.58,.58,.77,1.24,.54,2.03-.12,.41-.23,.83-.33,1.25-.35,1.33-.69,2.65-1.04,4,.2,.06,.34,.11,.49,.15,1.61,.44,3.22,.89,4.83,1.32,.73,.2,1.19,.65,1.38,1.38,.37,1.4,.76,2.79,1.14,4.18,.1,.38,.22,.75,.33,1.14,1.78-.47,3.51-.92,5.24-1.39,.77-.21,1.42-.08,1.99,.5,.63,.64,1.28,1.25,1.91,1.89,.65,.66,1.28,1.34,2.03,2.13,1.33-1.38,2.57-2.65,3.79-3.94,.61-.64,1.3-.81,2.15-.57,1.7,.48,3.42,.9,5.17,1.36,.06-.19,.11-.35,.15-.51,.44-1.61,.89-3.22,1.32-4.83,.19-.71,.64-1.16,1.35-1.35,.52-.14,1.03-.28,1.54-.42,1.26-.34,2.51-.69,3.81-1.04-.46-1.76-.88-3.48-1.36-5.18-.24-.86-.07-1.54,.57-2.16,1.17-1.15,2.31-2.32,3.46-3.49,.1-.11,.2-.22,.39-.45-1.12-1.07-2.16-2.18-3.32-3.15-1.18-.98-1.39-2.06-.91-3.48,.49-1.42,.79-2.91,1.17-4.39-.17-.06-.3-.1-.43-.14-1.63-.45-3.25-.9-4.88-1.33-.73-.2-1.19-.64-1.39-1.38-.31-1.15-.62-2.29-.94-3.44-.17-.63-.35-1.25-.53-1.89-1.78,.47-3.51,.91-5.24,1.38-.79,.21-1.45,.06-2.03-.53-.62-.64-1.28-1.25-1.91-1.9-.63-.65-1.25-1.32-1.88-2-.25,.24-.39,.36-.52,.49-1.15,1.14-2.31,2.27-3.45,3.42-.57,.57-1.21,.75-1.98,.53-.81-.23-1.63-.44-2.44-.65-.94-.25-1.88-.48-2.84-.73-.39,1.42-.77,2.78-1.14,4.14q-.62,2.27-2.87,2.87c-1.38,.37-2.75,.76-4.16,1.15,.43,1.65,.81,3.27,1.3,4.87,.33,1.09,.14,1.92-.71,2.69-1.24,1.12-2.41,2.3-3.65,3.49Z"/><path class="i" d="M18.36,36.28c-.65-.04-1.18-.33-1.5-.95-.32-.62-.25-1.23,.14-1.8,.08-.11,.18-.21,.28-.31,5.31-5.31,10.62-10.62,15.92-15.93,.5-.5,1.06-.76,1.77-.57,1.23,.32,1.71,1.76,.92,2.75-.11,.13-.23,.25-.35,.38-5.25,5.25-10.5,10.49-15.74,15.75-.39,.39-.83,.67-1.44,.69Z"/><path class="j" d="M19.53,25.32c-3.15,0-5.75-2.61-5.76-5.76-.01-3.16,2.62-5.8,5.79-5.79,3.18,.01,5.79,2.65,5.76,5.81-.03,3.16-2.64,5.74-5.79,5.73Zm2.31-5.77c0-1.28-1-2.29-2.28-2.3-1.29,0-2.3,.99-2.31,2.27-.01,1.31,1.01,2.33,2.31,2.32,1.28,0,2.28-1.02,2.28-2.3Z"/><path class="k" d="M27.62,33.36c.03-3.18,2.67-5.78,5.84-5.74,3.16,.04,5.74,2.67,5.71,5.81-.03,3.16-2.63,5.75-5.79,5.74-3.17,0-5.79-2.65-5.76-5.81Zm8.07,.03c0-1.28-1.01-2.29-2.29-2.29-1.28,0-2.29,1-2.3,2.28,0,1.3,1.01,2.32,2.31,2.32,1.28,0,2.28-1.02,2.28-2.3Z"/></g></g></g></g></svg>