<?xml version="1.0" encoding="UTF-8"?><svg xmlns="http://www.w3.org/2000/svg" xmlns:xlink="http://www.w3.org/1999/xlink" viewBox="0 0 80.81 80.8"><defs><style>.f{fill:url(#d);}.g{fill:url(#e);}.h{fill:#f7f7f7;}</style><linearGradient id="d" x1="19.43" y1="42.35" x2="35.13" y2="42.35" gradientTransform="matrix(1, 0, 0, 1, 0, 0)" gradientUnits="userSpaceOnUse"><stop offset="0" stop-color="#00aff1"/><stop offset=".44" stop-color="#05b1ef"/><stop offset=".96" stop-color="#13b7ea"/><stop offset="1" stop-color="#15b8ea"/></linearGradient><linearGradient id="e" x1="0" y1="40.4" x2="80.81" y2="40.4" xlink:href="#d"/></defs><g id="a"/><g id="b"><g id="c"><g><path class="f" d="M35.13,40.39c-1.53,1.01-3.2,2.07-5.02,3.16-.92,.51-1.91,.93-2.93,1.25-.2-.06-.41-.13-.62-.2-1.03-.34-2.15-.7-3.2-1.04-1.46-.48-2.79-.92-3.6-1.18-.37-.12-.45-.6-.15-.84,.47-.36,1.18-.82,2.06-1.17,.43-.17,.9-.31,1.42-.39,.35-.06,.72-.09,1.1-.09,.45,0,6.92,.3,10.93,.49Z"/><path class="g" d="M40.41,0C18.09,0,0,18.08,0,40.4s18.09,40.4,40.41,40.4,40.4-18.09,40.4-40.4S62.72,0,40.41,0Zm-.04,76c-1.64,0-3.26-.11-4.84-.33-5.6-1.16-8.25-4.3-9.32-7.34-1.35-3.82-.59-8.16,1.24-11.78,.13-.26,.31-.53,.53-.79,1.18-1.45,3.39-2.94,3.73-3.21,0,.05,.02,.1,.02,.14,.08,1.16,.16,2.32,.24,3.48,.03,.57,.08,1.13,.12,1.69h0c.05,.79,.1,1.57,.16,2.36,.09,1.34,.17,2.68,.27,4.02,.05,.85,.09,1.7,.16,2.55,.01,.2,.08,.41,.16,.6,.08,.17,.27,.22,.43,.11,.15-.11,.3-.22,.45-.33,.36-.28,.76-.52,1.08-.85,.76-.79,1.21-1.77,1.41-2.85,.26-1.37,.51-2.73,.75-4.1,.09-.49,.17-.98,.26-1.46,.35-1.92,.7-3.84,1.05-5.76,.05-.27,.1-.54,.15-.82,.29-1.56,.57-3.11,.86-4.68,.02-.08,.13-.22,.13-.22,0,0,1.38-1.18,3.19-2.72,2.93-2.51,6.96-5.95,7.95-6.81,.2-.18,.18-.49-.03-.65-1.07-.78-4.85-1.99-8.39,.53-.87,.63-2.76,2.31-6.29,4.86-1.9,1.38-4.29,3-7.25,4.84-.71,.44-1.44,.89-2.21,1.36-1.69,.93-3.48,1.55-5.26,1.89-5.45,1.06-10.88-.37-13.25-2.75-1.6-1.6-2.57-3.77-2.87-6.02-.13-.94-.16-1.88-.14-2.82v-.03C5.99,20.09,20.54,5.71,38.64,4.84c.57-.02,1.15-.04,1.73-.04s1.18,.02,1.77,.05h0c2.39,.15,5.39,.56,8.74,1.59,2.36,.72,4.37,1.6,6.04,2.46,1.04,.54,2.04,1.13,3.01,1.78,0,.01,.02,.02,.03,.02,9.63,6.37,15.99,17.29,15.99,29.71,0,19.66-15.94,35.6-35.6,35.6Z"/><path class="h" d="M59.98,10.69s-.02-.01-.03-.02c-.97-.65-1.98-1.24-3.01-1.78-1.67-.85-3.69-1.73-6.04-2.46-3.35-1.03-6.36-1.44-8.74-1.59h0c-.59-.04-1.18-.05-1.77-.05s-1.16,.02-1.73,.04C20.54,5.71,5.99,20.09,4.85,38.1v.03c-.02,.94,.01,1.88,.14,2.82,.3,2.25,1.27,4.42,2.87,6.02,2.37,2.38,7.8,3.81,13.25,2.75,1.78-.34,3.57-.96,5.26-1.89,.77-.47,1.5-.92,2.21-1.36,2.96-1.84,5.35-3.46,7.25-4.84,3.53-2.55,5.42-4.23,6.29-4.86,3.54-2.53,7.31-1.31,8.39-.53,.22,.16,.23,.47,.03,.65-.99,.86-5.02,4.3-7.95,6.81-1.81,1.54-3.19,2.72-3.19,2.72,0,0-.11,.13-.13,.22-.29,1.56-.57,3.12-.86,4.68-.05,.27-.1,.54-.15,.82-.35,1.92-.7,3.84-1.05,5.76-.09,.48-.17,.97-.26,1.46-.24,1.37-.5,2.73-.75,4.1-.2,1.08-.64,2.06-1.41,2.85-.32,.33-.72,.57-1.08,.85-.15,.12-.3,.22-.45,.33-.16,.11-.35,.06-.43-.11-.08-.19-.15-.4-.16-.6-.07-.85-.11-1.7-.16-2.55-.09-1.34-.18-2.68-.27-4.02-.06-.78-.11-1.56-.16-2.35h0c-.04-.57-.08-1.13-.12-1.7-.08-1.16-.16-2.32-.24-3.48,0-.04-.02-.09-.02-.14-.34,.27-2.55,1.76-3.73,3.21-.22,.26-.4,.53-.53,.79-1.83,3.62-2.59,7.96-1.24,11.78,1.07,3.04,3.72,6.18,9.32,7.34,1.58,.22,3.2,.33,4.84,.33,19.66,0,35.6-15.94,35.6-35.6,0-12.42-6.36-23.33-15.99-29.71ZM30.11,43.55c-.92,.51-1.91,.93-2.93,1.25-.2-.06-.41-.13-.62-.2-1.03-.34-2.15-.7-3.2-1.04-1.46-.48-2.79-.92-3.6-1.18-.37-.12-.45-.6-.15-.84,.47-.36,1.18-.82,2.06-1.17,.43-.17,.9-.31,1.42-.39,.35-.06,.72-.09,1.1-.09,.45,0,6.92,.3,10.93,.49-1.53,1.01-3.2,2.07-5.02,3.16Z"/></g></g></g></svg>