<?xml version="1.0" encoding="UTF-8"?><svg xmlns="http://www.w3.org/2000/svg" viewBox="0 0 1920.92 897.71"><defs><style>.g{fill:#00aff1;}.h{isolation:isolate;}.i{fill:#ffd400;}.j{fill:#bbe2f8;mix-blend-mode:multiply;}.k{fill:#f7f7f7;}.l{fill:#004ca2;}</style></defs><g class="h"><g id="a"/><g id="b"><g id="c"><rect class="k" x="0" width="1920" height="810.64"/><g><rect class="l" x="1780.63" y="144.63" width="15.15" height="563.83"/><g><path class="l" d="M1779.16,88c-2.63,1.74-5.49,3.55-8.6,5.42-1.58,.88-3.27,1.59-5.02,2.15-.35-.11-.71-.23-1.07-.34-1.77-.58-3.68-1.2-5.48-1.78-2.5-.82-4.79-1.57-6.18-2.02-.63-.2-.78-1.03-.25-1.44,.81-.61,2.02-1.41,3.53-2,.74-.29,1.55-.53,2.43-.67,.6-.11,1.24-.16,1.89-.16,.78,0,11.86,.51,18.75,.84Z"/><path class="l" d="M1788.21,18.74c-38.27,0-69.29,31.01-69.29,69.28s31.02,69.28,69.29,69.28,69.28-31.02,69.28-69.28-31.02-69.28-69.28-69.28Zm-.06,130.32c-2.82,0-5.59-.19-8.3-.56-9.61-1.99-14.15-7.37-15.99-12.58-2.32-6.55-1.01-13.99,2.12-20.2,.22-.45,.54-.91,.91-1.36,2.03-2.49,5.82-5.04,6.4-5.5,.01,.09,.04,.17,.04,.24,.14,1.99,.28,3.97,.41,5.96,.06,.97,.13,1.93,.2,2.9h0c.09,1.36,.18,2.7,.28,4.04,.15,2.3,.3,4.6,.46,6.89,.09,1.46,.16,2.92,.28,4.38,.02,.35,.14,.7,.28,1.03,.14,.29,.47,.37,.74,.19,.26-.19,.52-.37,.77-.57,.62-.48,1.3-.9,1.85-1.46,1.31-1.36,2.07-3.04,2.41-4.89,.44-2.35,.87-4.68,1.29-7.03,.15-.84,.3-1.68,.45-2.51,.6-3.3,1.2-6.59,1.8-9.88,.08-.47,.17-.93,.25-1.4,.49-2.67,.98-5.34,1.47-8.02,.03-.14,.22-.37,.22-.37,0,0,2.37-2.03,5.47-4.67,5.02-4.3,11.93-10.21,13.63-11.68,.34-.31,.31-.84-.06-1.11-1.84-1.34-8.31-3.42-14.38,.91-1.5,1.08-4.74,3.96-10.79,8.33-3.26,2.36-7.35,5.14-12.43,8.3-1.21,.75-2.47,1.53-3.79,2.33-2.9,1.59-5.96,2.65-9.02,3.24-9.35,1.82-18.65-.63-22.72-4.71-2.75-2.75-4.41-6.47-4.93-10.33-.22-1.61-.28-3.22-.24-4.84v-.05c1.96-30.89,26.92-55.55,57.95-57.04,.98-.04,1.97-.07,2.97-.07s2.03,.03,3.04,.09h.01c4.09,.25,9.25,.96,14.99,2.72,4.04,1.24,7.5,2.75,10.36,4.21,1.78,.93,3.5,1.94,5.17,3.05,.01,.02,.03,.03,.05,.04,16.52,10.93,27.42,29.65,27.42,50.94,0,33.71-27.33,61.04-61.04,61.04Z"/><path class="k" d="M1821.77,37.08s-.04-.02-.05-.04c-1.67-1.11-3.39-2.12-5.17-3.05-2.86-1.46-6.32-2.97-10.36-4.21-5.74-1.76-10.9-2.47-14.99-2.72h-.01c-1.01-.06-2.02-.09-3.04-.09s-1.99,.03-2.97,.07c-31.03,1.49-55.99,26.15-57.95,57.04v.05c-.04,1.62,.02,3.23,.24,4.84,.52,3.86,2.18,7.58,4.93,10.33,4.07,4.08,13.37,6.53,22.72,4.71,3.06-.59,6.12-1.65,9.02-3.24,1.32-.8,2.58-1.58,3.79-2.33,5.08-3.16,9.17-5.94,12.43-8.3,6.05-4.37,9.29-7.25,10.79-8.33,6.07-4.33,12.54-2.25,14.38-.91,.37,.27,.4,.8,.06,1.11-1.7,1.47-8.61,7.38-13.63,11.68-3.1,2.64-5.47,4.67-5.47,4.67,0,0-.19,.23-.22,.37-.49,2.68-.98,5.35-1.47,8.02-.08,.47-.17,.93-.25,1.4-.6,3.29-1.2,6.58-1.8,9.88-.15,.83-.3,1.67-.45,2.51-.42,2.35-.85,4.68-1.29,7.03-.34,1.85-1.1,3.53-2.41,4.89-.55,.56-1.23,.98-1.85,1.46-.25,.2-.51,.38-.77,.57-.27,.18-.6,.1-.74-.19-.14-.33-.26-.68-.28-1.03-.12-1.46-.19-2.92-.28-4.38-.16-2.29-.31-4.59-.46-6.89-.1-1.34-.19-2.68-.28-4.03h0c-.07-.98-.14-1.94-.2-2.91-.13-1.99-.27-3.97-.41-5.96,0-.07-.03-.15-.04-.24-.58,.46-4.37,3.01-6.4,5.5-.37,.45-.69,.91-.91,1.36-3.13,6.21-4.44,13.65-2.12,20.2,1.84,5.21,6.38,10.59,15.99,12.58,2.71,.37,5.48,.56,8.3,.56,33.71,0,61.04-27.33,61.04-61.04,0-21.29-10.9-40.01-27.42-50.94Zm-51.21,56.34c-1.58,.88-3.27,1.59-5.02,2.15-.35-.11-.71-.23-1.07-.34-1.77-.58-3.68-1.2-5.48-1.78-2.5-.82-4.79-1.57-6.18-2.02-.63-.2-.78-1.03-.25-1.44,.81-.61,2.02-1.41,3.53-2,.74-.29,1.55-.53,2.43-.67,.6-.11,1.24-.16,1.89-.16,.78,0,11.86,.51,18.75,.84-2.63,1.74-5.49,3.55-8.6,5.42Z"/></g><path class="g" d="M1728.58,240.54v-23.72c0-3.79,3.23-6.79,7.02-6.51l87.35,6.67v-10.43c0-5.8,6.17-8.93,10.18-5.2l24.23,22.46c2.59,2.41,2.48,6.84-.23,9.09l-24.27,20.04c-4.07,3.37-9.91,.17-9.91-5.44v-10.35l-87.11,9.88c-3.86,.44-7.26-2.58-7.26-6.49Z"/><path class="i" d="M1728.58,354.96v-23.72c0-3.79,3.23-6.79,7.02-6.51l87.35,6.67v-10.43c0-5.8,6.17-8.93,10.18-5.2l24.23,22.46c2.59,2.41,2.48,6.84-.23,9.09l-24.27,20.04c-4.07,3.37-9.91,.17-9.91-5.44v-10.35l-87.11,9.88c-3.86,.44-7.26-2.58-7.26-6.49Z"/><path class="l" d="M1727.25,286.81l10.85,11.88c.33,.36,.79,.58,1.28,.6l98.91,4.78c1.33,.06,2.24-1.32,1.66-2.51l-8.18-16.85c-.8-1.65-.7-3.59,.28-5.14l7.84-12.51c.75-1.19-.15-2.74-1.56-2.68l-101.52,4.46c-.53,.02-1.02,.27-1.36,.68l-8.4,10.36c-1.66,2.04-1.57,4.99,.2,6.93Z"/></g><g><polygon class="i" points="1513.07 679.24 1513.07 683.02 1611.56 683.02 1710.05 683.02 1710.05 679.24 1611.56 679.24 1513.07 679.24"/><path class="i" d="M1718.29,676.23v-5.2h-7.72v-12.62h2.97v-5.05h-72.59v-3.56h-13.95v-4.53s4.23-3.27,5.05-2.97c.82,.3,.89,1.63,.67,2.23-.22,.59-1.04,2.38-1.04,2.38l1.86,.15s1.04-1.19,1.41-3.71c.37-2.52,.52-4.23-.37-4.82-.89-.59-2.08-1.19-2.08-1.19,0,0,1.19-2.52,2.23-2.97,1.04-.45,3.34-2,2.82-3.34-.52-1.34-2.23-1.63-3.27-1.19-1.04,.45-2.38,.3-2.82,.74s-.97,1.78-1.26,2.38c-.3,.59-2.67,3.79-3.27,4.08-.59,.3-4.23,.52-4.23,.52l-3.34-.82v-5.64h2.9v-3.19h-3.19v-4.68h-4.97v-9.43h2.08v-2.75h-2.15v-2.15h2v-2.45h2.08v-3.49h-2.97v1.56h-1.41v2l-2.15-.07-2.15,.07v-2h-1.41v-1.56h-2.97v3.49h2.08v2.45h2v2.15h-2.15v2.75h2.08v9.43h-4.97v4.68h-3.19v3.19h2.89v5.64l-3.34,.82s-3.64-.22-4.23-.52c-.59-.3-2.97-3.49-3.27-4.08-.3-.59-.82-1.93-1.26-2.38-.45-.45-1.78-.3-2.82-.74-1.04-.44-2.75-.15-3.27,1.19-.52,1.34,1.78,2.89,2.82,3.34,1.04,.44,2.23,2.97,2.23,2.97,0,0-1.19,.59-2.08,1.19-.89,.59-.74,2.3-.37,4.82,.37,2.52,1.41,3.71,1.41,3.71l1.86-.15s-.82-1.78-1.04-2.38c-.22-.59-.15-1.93,.67-2.23,.82-.3,5.05,2.97,5.05,2.97v4.53h-13.95v3.56h-72.59v5.05h2.97v12.62h-7.72v5.2h213.46Z"/><path class="i" d="M1711.98,778.55l-1.73-84.95h3.06v-3.56h.74v-4.12h-205v4.12h.74v3.56h3.06l-1.73,84.95h-6.42v4.12h213.68v-4.12h-6.42Zm-189.48,0l-1.34-84.95h2.67v-3.56h21.56v3.56h3.06l-1.73,84.95h-24.23Zm35.59,0l-1.34-84.95h2.67v-3.56h21.56v3.56h3.06l-1.73,84.95h-24.23Zm53.48,0h-17.89l-1.34-84.95h2.67v-3.56h33.1v3.56h2.67l-1.34,84.95h-17.89Zm29.24,0l-1.73-84.95h3.06v-3.56h21.56v3.56h2.67l-1.34,84.95h-24.23Zm35.59,0l-1.73-84.95h3.06v-3.56h21.56v3.56h2.67l-1.34,84.95h-24.23Z"/></g><g><polygon class="l" points="1276.73 721.58 1265.1 721.58 1265.1 736.02 1254.67 736.02 1254.67 751.66 1244.24 751.66 1244.24 764.5 1232.61 764.5 1232.61 778.74 1299.59 778.74 1299.59 706.74 1276.73 706.74 1276.73 721.58"/><polygon class="l" points="1397.26 764.5 1397.26 751.66 1386.83 751.66 1386.83 736.02 1376.4 736.02 1376.4 721.58 1364.77 721.58 1364.77 706.74 1341.91 706.74 1341.91 778.74 1408.89 778.74 1408.89 764.5 1397.26 764.5"/><rect class="l" x="1305.67" y="706.74" width="29.95" height="5.39"/><rect class="l" x="1300.39" y="688.09" width="40.51" height="13.21"/><rect class="l" x="1305.67" y="716.26" width="29.95" height="5.39"/><rect class="l" x="1305.67" y="725.77" width="29.95" height="5.39"/><rect class="l" x="1305.67" y="735.29" width="29.95" height="5.39"/><rect class="l" x="1305.67" y="744.8" width="29.95" height="5.39"/><rect class="l" x="1305.67" y="754.32" width="29.95" height="5.39"/><rect class="l" x="1305.67" y="763.84" width="29.95" height="5.39"/><rect class="l" x="1305.67" y="773.35" width="29.95" height="5.39"/></g><polygon class="g" points="578.35 534.81 578.35 487.9 573.33 487.9 573.33 457.2 568.89 457.2 568.89 435.2 558.32 416.39 558.32 390.26 556.68 390.26 556.68 416.39 546.11 435.2 546.11 457.2 541.67 457.2 541.67 487.9 536.66 487.9 536.66 534.81 527.2 534.81 527.2 574.86 486.66 574.86 486.66 534.81 477.2 534.81 477.2 487.9 472.18 487.9 472.18 457.2 467.74 457.2 467.74 435.2 457.17 416.39 457.17 390.26 455.53 390.26 455.53 416.39 444.96 435.2 444.96 457.2 440.52 457.2 440.52 487.9 435.5 487.9 435.5 534.81 426.04 534.81 426.04 743.68 486.66 743.68 486.66 590.5 527.2 590.5 527.2 743.68 587.81 743.68 587.81 534.81 578.35 534.81"/><g><polygon class="g" points="1481.17 760.79 1473.09 760.79 1469.36 558.68 1449.54 558.68 1445.81 760.79 1437.74 760.79 1428.42 788.9 1445.29 788.9 1473.61 788.9 1490.48 788.9 1481.17 760.79"/><polygon class="g" points="1470.99 557.06 1470.99 552.99 1477.15 552.99 1479.27 541.46 1439.63 541.46 1441.76 552.99 1447.92 552.99 1447.92 557.06 1470.99 557.06"/><path class="g" d="M1482.36,533.58h-10.56v-7.31h-4.95v-38.75h-3.49v-29.49c0-2.15-1.75-3.9-3.9-3.9h0c-2.15,0-3.9,1.75-3.9,3.9v29.49h-3.49v38.75h-4.95v7.31h-10.56v6.17h45.82v-6.17Z"/></g><path class="g" d="M984.31,550.46c-69.67,0-99.68-10.51-99.68-10.51v3.08c1.4,2.24,5.33,4.63,5.33,4.63v5.05c7.15,5.75,19.07,8.13,19.07,8.13v8.13h28.6v2.97h2.1l-.36,10.56c-23.31-1.04-33.56-2.6-33.56-2.6-.14,4.35,2.52,10.93,2.52,10.93h30.75l-2.86,83.41h14.02l-2.86-83.41h73.85l-2.86,83.41h14.02l-2.86-83.41h30.76s2.66-6.59,2.52-10.93c0,0-10.25,1.56-33.56,2.6l-.36-10.56h2.1v-2.97h28.6v-8.13s11.92-2.38,19.07-8.13v-5.05s3.93-2.38,5.33-4.63v-3.08s-30,10.51-99.67,10.51Zm0,32.94c-14.62,0-26.92-.24-37.2-.6l-.37-10.87h2.1v-2.97h70.94v2.97h2.1l-.37,10.87c-10.27,.36-22.58,.6-37.2,.6Z"/><g><rect class="l" x="195.64" y="547.29" width="63.38" height="3.07"/><path class="l" d="M262.25,542.8h-2.53c12.47-38.75-25.38-56.51-31.54-59.11v-1.61c.86-.34,1.47-1.17,1.47-2.16s-.61-1.81-1.47-2.16v-2.07c1.39-.39,2.43-1.61,2.43-3.12s-1.04-2.73-2.43-3.12v-2.43c.86-.34,1.47-1.17,1.47-2.16s-.61-1.81-1.47-2.16v-6.21h-1.72v6.21c-.86,.34-1.47,1.17-1.47,2.16s.61,1.81,1.47,2.16v2.43c-1.39,.39-2.43,1.61-2.43,3.12s1.04,2.73,2.43,3.12v2.07c-.86,.34-1.47,1.17-1.47,2.16s.61,1.81,1.47,2.16v1.61c-6.16,2.6-44.02,20.35-31.54,59.11h-2.53v3.07h69.86v-3.07Z"/><rect class="l" x="197.19" y="552.12" width="60.27" height="3.07"/><path class="l" d="M379.43,630.64l-1.39-27.97h.95c1.01,0,1.82-.82,1.82-1.82v-.61c0-1.01-.82-1.82-1.82-1.82h-1.16l-1.4-28.28h2.56c1.01,0,1.82-.82,1.82-1.82v-.61c0-1.01-.82-1.82-1.82-1.82h-2.77l-1.59-32.19h1.13c1.01,0,1.82-.82,1.82-1.82,0-.11-.04-.2-.06-.31,.83-.17,1.47-.87,1.47-1.75,0-1.01-.82-1.82-1.82-1.82h-2.82l-.38-7.68h1.79c1.01,0,1.82-.82,1.82-1.82s-.82-1.82-1.82-1.82h-1.48v-3.93c0-1.01-.82-1.82-1.82-1.82h-2.08v-6.34h-1.76v6.34h-2.08c-1.01,0-1.82,.82-1.82,1.82v3.93h-1.48c-1.01,0-1.82,.82-1.82,1.82s.82,1.82,1.82,1.82h1.96l-.39,7.68h-2.98c-1.01,0-1.82,.82-1.82,1.82,0,.88,.64,1.58,1.47,1.75-.02,.1-.06,.2-.06,.31,0,1.01,.82,1.82,1.82,1.82h1.28l-1.64,32.19h-2.87c-1.01,0-1.82,.82-1.82,1.82v.61c0,1.01,.82,1.82,1.82,1.82h2.65l-1.44,28.28h-1.21c-1.01,0-1.82,.82-1.82,1.82v.61c0,1.01,.82,1.82,1.82,1.82h.99l-1.43,27.97h-17.51l-1.06-21.33h.49c.9,0,1.62-.73,1.62-1.62s-.73-1.62-1.62-1.62h-.65l-1.07-21.57h1.72c.9,0,1.62-.73,1.62-1.62s-.73-1.62-1.62-1.62h-1.88l-1.22-24.55h.86c.77,0,1.39-.62,1.39-1.39,0-.08-.03-.16-.05-.24,.63-.13,1.12-.66,1.12-1.34,0-.77-.62-1.39-1.39-1.39h-2.15l-.29-5.85h1.37c.77,0,1.39-.62,1.39-1.39s-.62-1.39-1.39-1.39h-1.17c0-.08,.04-.14,.04-.22v-2.34c0-1.01-.82-1.82-1.82-1.82h-1.15v-4.83h-1.34v4.83h-1.15c-1.01,0-1.82,.82-1.82,1.82v2.34c0,.08,.03,.15,.04,.22h-1.18c-.77,0-1.39,.62-1.39,1.39s.62,1.39,1.39,1.39h1.5l-.3,5.85h-2.27c-.77,0-1.39,.62-1.39,1.39,0,.67,.49,1.21,1.12,1.34-.01,.08-.05,.15-.05,.24,0,.77,.62,1.39,1.39,1.39h.97l-1.25,24.55h-1.95c-.9,0-1.62,.73-1.62,1.62s.73,1.62,1.62,1.62h1.79l-1.1,21.57h-.69c-.9,0-1.62,.73-1.62,1.62s.73,1.62,1.62,1.62h.52l-1.09,21.33h-17.07v-62.63h-19.26v62.63h-2.43v-60.45h1.57v-2.18h-1.57v-10.62h1.57v-2.18h-2.63c3.37-9.34-8.46-13.99-11.96-15.14v-7.32h-1.93v7.32c-3.5,1.14-15.33,5.8-11.96,15.14h-2.63v2.18h1.57v10.62h-1.57v2.18h1.57v60.45h-3.77v-69.15h2.8v-3.07h-63.78v3.07h2.8v69.15h-3.95v-60.45h1.57v-2.18h-1.57v-10.62h1.57v-2.18h-2.63c3.37-9.34-8.46-13.99-11.96-15.14v-7.32h-1.93v7.32c-3.5,1.14-15.33,5.8-11.96,15.14h-2.63v2.18h1.57v10.62h-1.57v2.18h1.57v60.45h-2.43v-62.63h-19.26v62.63h-17.07l-1.09-21.33h.52c.9,0,1.62-.73,1.62-1.62s-.73-1.62-1.62-1.62h-.69l-1.1-21.57h1.79c.9,0,1.62-.73,1.62-1.62s-.73-1.62-1.62-1.62h-1.95l-1.25-24.55h.97c.77,0,1.39-.62,1.39-1.39,0-.08-.03-.16-.05-.24,.63-.13,1.12-.66,1.12-1.34,0-.77-.62-1.39-1.39-1.39h-2.27l-.3-5.85h1.5c.77,0,1.39-.62,1.39-1.39s-.62-1.39-1.39-1.39h-1.18c0-.08,.04-.14,.04-.22v-2.34c0-1.01-.82-1.82-1.82-1.82h-1.15v-4.83h-1.34v4.83h-1.15c-1.01,0-1.82,.82-1.82,1.82v2.34c0,.08,.03,.15,.04,.22h-1.17c-.77,0-1.39,.62-1.39,1.39s.62,1.39,1.39,1.39h1.37l-.29,5.85h-2.15c-.77,0-1.39,.62-1.39,1.39,0,.67,.49,1.21,1.12,1.34-.01,.08-.05,.15-.05,.24,0,.77,.62,1.39,1.39,1.39h.86l-1.22,24.55h-1.88c-.9,0-1.62,.73-1.62,1.62s.73,1.62,1.62,1.62h1.72l-1.07,21.57h-.65c-.9,0-1.62,.73-1.62,1.62s.73,1.62,1.62,1.62h.49l-1.06,21.33h-17.51l-1.43-27.97h.99c1.01,0,1.82-.82,1.82-1.82v-.61c0-1.01-.82-1.82-1.82-1.82h-1.21l-1.44-28.28h2.65c1.01,0,1.82-.82,1.82-1.82v-.61c0-1.01-.82-1.82-1.82-1.82h-2.87l-1.64-32.19h1.28c1.01,0,1.82-.82,1.82-1.82,0-.11-.04-.2-.06-.31,.83-.17,1.47-.87,1.47-1.75,0-1.01-.82-1.82-1.82-1.82h-2.98l-.39-7.68h1.96c1.01,0,1.82-.82,1.82-1.82s-.82-1.82-1.82-1.82h-1.48v-3.93c0-1.01-.82-1.82-1.82-1.82h-2.08v-6.34h-1.76v6.34h-2.08c-1.01,0-1.82,.82-1.82,1.82v3.93h-1.48c-1.01,0-1.82,.82-1.82,1.82s.82,1.82,1.82,1.82h1.79l-.38,7.68h-2.82c-1.01,0-1.82,.82-1.82,1.82,0,.88,.64,1.58,1.47,1.75-.02,.1-.06,.2-.06,.31,0,1.01,.82,1.82,1.82,1.82h1.13l-1.59,32.19h-2.77c-1.01,0-1.82,.82-1.82,1.82v.61c0,1.01,.82,1.82,1.82,1.82h2.56l-1.4,28.28h-1.16c-1.01,0-1.82,.82-1.82,1.82v.61c0,1.01,.82,1.82,1.82,1.82h.95l-1.39,27.97h-2.97v18.93H382.59v-18.93h-3.15Zm-116.15-63.66v-5.36c0-1.48,1.2-2.68,2.68-2.68s2.68,1.2,2.68,2.68v5.36h-5.36Zm8.21,0v-5.36c0-1.48,1.2-2.68,2.68-2.68s2.68,1.2,2.68,2.68v5.36h-5.36Zm8.82,0v-5.36c0-1.48,1.2-2.68,2.68-2.68s2.68,1.2,2.68,2.68v5.36h-5.36Zm-111.5,0v-5.36c0-1.48,1.2-2.68,2.68-2.68s2.68,1.2,2.68,2.68v5.36h-5.36Zm8.82,0v-5.36c0-1.48,1.2-2.68,2.68-2.68s2.68,1.2,2.68,2.68v5.36h-5.36Zm8.21,0v-5.36c0-1.48,1.2-2.68,2.68-2.68s2.68,1.2,2.68,2.68v5.36h-5.36Zm-38.43,22.75c0-3.79,3.07-6.86,6.86-6.86s6.86,3.07,6.86,6.86v13.72h-13.72v-13.72Zm0,40.91v-13.72c0-3.79,3.07-6.86,6.86-6.86s6.86,3.07,6.86,6.86v13.72h-13.72Zm39.76-27.2h-13.72v-13.72c0-3.79,3.07-6.86,6.86-6.86s6.86,3.07,6.86,6.86v13.72Zm-13.72,27.2v-13.72c0-3.79,3.07-6.86,6.86-6.86s6.86,3.07,6.86,6.86v13.72h-13.72Zm34.73-34.44c0-9.51,8.58-17.22,19.16-17.22s19.15,7.71,19.15,17.22v34.44h-38.31v-34.44Zm48.24,50.55h-58.17v-2.98h58.17v2.98Zm0-5.42h-58.17v-2.98h58.17v2.98Zm0-5.42h-58.17v-2.98h58.17v2.98Zm24.62-32.48h-13.72v-13.72c0-3.79,3.07-6.86,6.86-6.86s6.86,3.07,6.86,6.86v13.72Zm-13.72,27.2v-13.72c0-3.79,3.07-6.86,6.86-6.86s6.86,3.07,6.86,6.86v13.72h-13.72Zm26.05-40.91c0-3.79,3.07-6.86,6.86-6.86s6.86,3.07,6.86,6.86v13.72h-13.72v-13.72Zm0,40.91v-13.72c0-3.79,3.07-6.86,6.86-6.86s6.86,3.07,6.86,6.86v13.72h-13.72Z"/></g><path class="j" d="M1228.27,480.27h192.67s-1.7-9.96-7.42-6.99c0,0-9.75-11.45-21.2-3.82,0,0-7.21-16.11-22.89-9.11,0,0-11.23-4.66-16.74,5.93,0,0-9.96-9.54-20.35-1.06,0,0-4.66-2.97-8.27,1.27,0,0-6.78-14.2-20.77-4.66,0,0-6.57-2.54-9.75,2.54,0,0-15.47-8.05-21.83,4.45,0,0-5.93-6.36-11.87,0,0,0-10.81-3.18-14.63,4.03,0,0-14.2-4.45-16.96,7.42Z"/><path class="j" d="M425.43,445.31h-135.28s1.19-6.99,5.21-4.91c0,0,6.85-8.04,14.88-2.68,0,0,5.06-11.31,16.07-6.4,0,0,7.89-3.27,11.76,4.17,0,0,6.99-6.7,14.29-.74,0,0,3.27-2.08,5.8,.89,0,0,4.76-9.97,14.58-3.27,0,0,4.61-1.79,6.85,1.79,0,0,10.86-5.66,15.33,3.13,0,0,4.17-4.46,8.33,0,0,0,7.59-2.23,10.27,2.83,0,0,9.97-3.13,11.91,5.21Z"/><path class="j" d="M1126.31,369.14h-219.16s1.93-11.33,8.44-7.96c0,0,11.09-13.02,24.11-4.34,0,0,8.2-18.32,26.04-10.37,0,0,12.78-5.3,19.05,6.75,0,0,11.33-10.85,23.15-1.21,0,0,5.3-3.38,9.4,1.45,0,0,7.72-16.15,23.63-5.3,0,0,7.47-2.89,11.09,2.89,0,0,17.6-9.16,24.83,5.06,0,0,6.75-7.23,13.5,0,0,0,12.3-3.62,16.64,4.58,0,0,16.15-5.06,19.29,8.44Z"/><path class="j" d="M1636.73,496.15h-95.75s.84-4.95,3.69-3.48c0,0,4.85-5.69,10.53-1.9,0,0,3.58-8.01,11.38-4.53,0,0,5.58-2.32,8.32,2.95,0,0,4.95-4.74,10.11-.53,0,0,2.32-1.47,4.11,.63,0,0,3.37-7.06,10.32-2.32,0,0,3.27-1.26,4.85,1.26,0,0,7.69-4,10.85,2.21,0,0,2.95-3.16,5.9,0,0,0,5.37-1.58,7.27,2,0,0,7.06-2.21,8.43,3.69Z"/><path class="g" d="M1696.97,452.66l-1.75-1.45-5.83,2.6-14.01-9.08,15.47-9.35-2.79-1.7-6.47,1.99c-2.25-1.66-3.81-1.87-3.81-1.87l-1.04,1.7c.15,.37,.53,.87,.97,1.36l-3.39,1.05c-2.46-1.94-4.19-2.15-4.19-2.15l-1.04,1.7c.18,.46,.71,1.1,1.25,1.67l-3,.93s-5.41-2.98-8.54-4.81c-3.13-1.83-5.54-.81-6.15,.19s-.41,3.6,2.65,5.55c3.06,1.94,8.2,5.38,8.2,5.38l.56,3.09c-.76-.22-1.57-.4-2.06-.35l-1.04,1.7s.98,1.44,3.83,2.74l.63,3.49c-.63-.16-1.25-.28-1.65-.24l-1.04,1.7s.9,1.29,3.4,2.53l1.2,6.66,2.79,1.7,1.21-18.03,14.5,8.28,.37,6.38,2.09,.89,2.3-8.38,6.39-5.88Z"/><path class="l" d="M157.81,419.45l2.26-.21,2.29-5.96,16.33-3.49-4.32,17.55,3.17-.77,3.16-5.98c2.77-.42,4.01-1.37,4.01-1.37l-.47-1.94c-.37-.16-.99-.24-1.64-.28l1.66-3.14c3.11-.37,4.48-1.44,4.48-1.44l-.47-1.94c-.45-.2-1.28-.27-2.07-.29l1.47-2.78s5.93-1.72,9.44-2.64c3.51-.92,4.49-3.35,4.21-4.48-.27-1.13-2.26-2.84-5.8-2.05-3.54,.79-9.6,1.99-9.6,1.99l-2.58-1.79c.69-.38,1.39-.83,1.7-1.21l-.47-1.94s-1.71-.33-4.64,.77l-2.91-2.03c.56-.33,1.08-.69,1.33-1l-.47-1.94s-1.54-.28-4.19,.62l-5.56-3.87-3.17,.77,11.9,13.61-16.11,4.39-4.77-4.25-2.11,.85,4.3,7.55-.36,8.68Z"/><circle class="i" cx="826.02" cy="416.15" r="35.39"/><g id="d"><path class="l" d="M859.23,668.26c-.89,3.91-.61,5.06,1.38,5.89,.41,2.3-.43,3.87-2.96,4.7,8.91,19.21,20.17,36.69,35.85,51.52-.81,.12-1.31,.26-1.8,.26-10.85,.01-21.69-.02-32.54,.05-1.54,0-2.2-.5-2.77-1.9-4.25-10.42-10.28-19.48-20.35-25.16-13.11-7.4-29.17-4.72-40.16,6.55-5.29,5.43-9.05,11.83-11.95,18.79-.3,.73-1.37,1.62-2.09,1.62-11.25,.1-22.49,.06-33.74,.05-.22,0-.43-.1-1.09-.25,15.64-14.73,26.86-32.23,35.45-50.65-1.08-1.79-1.91-3.08-2.63-4.42-.15-.29-.05-1.06,.12-1.12,3.32-1.3,1.21-3.78,1.32-5.78,.11-.04,.25-.13,.4-.13,6.04-.25,6.22-.19,8.12-5.98,3.58-10.9,6.88-21.88,10.38-32.8,.58-1.83,.42-3.37-.48-5.05-1.27-2.36-.57-3.81,1.68-5.3,.91-.61,1.74-1.87,1.93-2.95,2.48-14.31,5.18-28.59,7.15-42.97,2.41-17.6,3.47-35.33,3.49-53.1,0-3.89-.69-7.79-.85-11.69-.04-.97,.58-2.05,1.11-2.95,1.22-2.06,2.49-4.1,3.9-6.03,.52-.71,1.45-1.45,2.24-1.51,.65-.05,1.55,.76,2.02,1.42,1.5,2.07,2.9,4.21,4.22,6.39,.46,.76,.88,1.73,.85,2.59-.22,5.99-.93,11.98-.79,17.95,.7,30.34,4.12,60.38,10.54,90.06,.3,1.37,.73,2.44,2.25,3.06,1.98,.82,2.63,2.86,1.5,4.73-1.21,2-1.13,3.88-.45,5.96,3.79,11.67,7.58,23.34,11.25,35.05,.77,2.46,2.03,3.58,4.62,3.15,.92-.15,1.9-.02,2.88-.02Zm-25.94,.21c-.05-.59-.04-.99-.13-1.37-2.22-9.36-4.42-18.72-6.73-28.06-.15-.62-1.22-1.39-1.89-1.43-2.8-.17-5.62-.02-8.42-.11-1.38-.04-1.89,.42-2.19,1.83-1.27,6.04-2.69,12.05-4.11,18.05-.86,3.64-1.8,7.26-2.76,11.09h26.23Z"/></g><g id="e"><g><path class="i" d="M632.75,742.93c.78,0,1.06-.15,1.16-1.01,.66-5.85,1.4-11.69,2.11-17.53,.14-1.11,.82-1.67,1.94-1.54,4.61,.55,9.22,1.12,13.83,1.68,6.58,.81,13.16,1.62,19.75,2.42,5.57,.68,11.14,1.35,16.7,2.03,1.52,.19,1.92,.76,1.73,2.29-.45,3.67-.9,7.35-1.34,11.03-.02,.16,0,.33,0,.61,.59,0,1.11,0,1.63,0v1.19h-57.51v-1.18Zm8.04-.06c.56-4.6,1.13-9.15,1.67-13.7,.17-1.44-.65-2.55-1.94-2.71-1.31-.16-2.37,.74-2.56,2.23-.38,2.99-.75,5.97-1.11,8.96-.21,1.72-.41,3.44-.62,5.22h4.56Zm6.71-.02h4.57c.51-4.17,1.03-8.27,1.51-12.38,.17-1.42-.7-2.52-2-2.66-1.24-.14-2.3,.76-2.49,2.12-.2,1.48-.38,2.95-.56,4.43-.34,2.81-.68,5.63-1.03,8.48Zm15.85,.02c.46-3.82,.95-7.59,1.35-11.38,.13-1.22-.88-2.23-2.1-2.34-1.08-.09-2.19,.81-2.37,2.01-.23,1.56-.41,3.12-.6,4.68-.28,2.32-.56,4.65-.85,7.02h4.57Zm11.27,0c.4-3.25,.8-6.45,1.18-9.66,.17-1.4-.62-2.47-1.89-2.66-1.28-.19-2.38,.67-2.59,2.09-.23,1.56-.41,3.12-.6,4.68-.22,1.83-.43,3.66-.65,5.54h4.56Zm6.7,.04c1.44,0,2.82,.01,4.19-.02,.15,0,.4-.27,.43-.44,.35-2.68,.7-5.37,.99-8.06,.14-1.27-.72-2.32-1.92-2.48-1.19-.16-2.36,.63-2.53,1.87-.42,3-.77,6.02-1.16,9.13Z"/><path class="i" d="M699.13,656.36c.4,.08,.7,.13,.98,.21,1.33,.37,2.14,1.59,1.98,2.96-.08,.71-.16,1.43-.25,2.14-.22,1.64-1.41,2.63-3.06,2.45-4.15-.46-8.29-.95-12.43-1.44-5.73-.68-11.46-1.38-17.19-2.08-5.62-.69-11.24-1.38-16.86-2.08-2.85-.35-5.7-.7-8.54-1.07-1.78-.23-2.74-1.54-2.51-3.33,.07-.55,.14-1.1,.2-1.65,.23-1.9,1.28-2.79,3.18-2.69,.14,0,.27,0,.5,0,.22-1.78,.45-3.55,.66-5.32,.65-5.29,1.29-10.58,1.95-15.87,.15-1.17,.72-1.56,1.87-1.42,8.91,1.09,17.83,2.17,26.74,3.26,7.93,.97,15.85,1.94,23.77,2.92,1.37,.17,1.73,.61,1.57,1.98-.56,4.72-1.15,9.43-1.72,14.15-.28,2.27-.55,4.55-.84,6.91Zm-13.75-1.64c.18-1.42,.34-2.73,.5-4.04,.53-4.39,1.08-8.78,1.58-13.17,.16-1.38-.71-2.44-1.99-2.59-1.21-.14-2.33,.8-2.5,2.14-.67,5.43-1.33,10.86-1.99,16.29-.03,.26-.03,.53-.04,.85l4.44,.53Zm-26.71-3.24l4.5,.53c.7-5.77,1.39-11.42,2.06-17.07,.18-1.5-.67-2.6-2.01-2.72-1.31-.12-2.31,.81-2.5,2.31-.48,3.92-.97,7.84-1.45,11.77-.21,1.69-.4,3.39-.61,5.19Zm33.33,4.07l4.49,.53c.12-.97,.23-1.84,.34-2.71,.58-4.71,1.16-9.42,1.71-14.13,.06-.5,.04-1.06-.12-1.54-.33-.96-1.33-1.52-2.29-1.4-1.13,.14-1.9,.94-2.05,2.15-.49,3.97-.98,7.94-1.47,11.91-.21,1.69-.4,3.39-.61,5.18Zm-39.96-4.89c.17-1.35,.33-2.61,.48-3.87,.54-4.42,1.07-8.83,1.61-13.25,.12-.96-.16-1.76-.98-2.3-1.47-.98-3.3-.04-3.53,1.82-.56,4.5-1.11,9-1.66,13.5-.14,1.17-.27,2.34-.41,3.56l4.48,.54Zm22.22,2.71c.17-1.39,.33-2.65,.48-3.9,.54-4.41,1.09-8.83,1.6-13.24,.17-1.42-.69-2.5-2-2.66-1.23-.14-2.32,.78-2.49,2.13-.56,4.52-1.11,9.05-1.66,13.57-.14,1.17-.27,2.34-.41,3.56l4.48,.54Z"/><path class="i" d="M691.42,719.7c.27,.05,.48,.09,.69,.13,1.43,.27,2.38,1.46,2.27,2.91-.06,.85-.17,1.71-.32,2.55-.24,1.38-1.5,2.3-2.9,2.12-10.15-1.24-20.29-2.49-30.44-3.73-8.06-.99-16.13-1.98-24.2-2.92-1.04-.12-1.96-.3-2.58-1.21-.86-1.26-.41-4.83,.74-5.83,.77-.67,1.68-.75,2.72-.61,.2-1.61,.4-3.16,.59-4.72,.67-5.51,1.34-11.03,2.01-16.54,.12-.99,.74-1.48,1.71-1.36,8.28,1.01,16.56,2.04,24.85,3.05,8.36,1.02,16.73,2.03,25.1,3.05,.33,.04,.66,.08,.99,.13,1.01,.14,1.46,.7,1.34,1.71-.83,6.8-1.66,13.6-2.49,20.41-.03,.27-.05,.54-.08,.85Zm-24.91-3c.07-.39,.13-.69,.16-.99,.63-5.21,1.26-10.42,1.89-15.63,.18-1.5-.67-2.66-2.02-2.79-1.26-.13-2.31,.83-2.48,2.25-.55,4.47-1.1,8.94-1.64,13.4-.13,1.06-.24,2.11-.36,3.21l4.45,.55Zm-22.25-2.71c.05-.2,.1-.33,.11-.46,.68-5.51,1.36-11.01,2.02-16.52,.12-1.02-.57-1.96-1.55-2.29-1.47-.49-2.8,.52-3.01,2.27-.48,3.97-.98,7.95-1.46,11.92-.18,1.5-.35,3-.53,4.54l4.43,.54Zm11.1,1.35c.05-.17,.1-.27,.11-.37,.68-5.54,1.37-11.07,2.03-16.61,.1-.85-.3-1.56-1.02-2.05-1.48-.99-3.29,0-3.53,1.92-.49,4-.98,8-1.47,12.01-.18,1.5-.35,3-.53,4.56l4.41,.54Zm22.26,2.71c.06-.37,.12-.62,.15-.86,.52-4.27,1.04-8.55,1.56-12.82,.12-1.01,.25-2.03,.36-3.04,.15-1.42-.66-2.5-1.98-2.66-1.26-.15-2.35,.78-2.52,2.19-.5,4.03-.99,8.05-1.48,12.08-.18,1.5-.35,3-.54,4.57,1.51,.19,2.95,.36,4.46,.55Zm11.14,1.35c.2-1.64,.4-3.2,.59-4.75,.49-4.01,.97-8.01,1.46-12.02,.11-.86-.14-1.59-.83-2.13-.66-.52-1.41-.64-2.19-.34-.94,.37-1.39,1.12-1.51,2.11-.48,4.01-.98,8.01-1.47,12.01-.18,1.5-.35,3-.54,4.58l4.49,.54Z"/><path class="i" d="M649.03,617.9c.31-2.56,.62-5.05,.92-7.55,.56-4.55,1.1-9.11,1.67-13.66,.12-.98,.74-1.41,1.84-1.28,3.79,.46,7.57,.93,11.35,1.39,7.93,.97,15.85,1.93,23.78,2.9,5.1,.62,10.2,1.24,15.3,1.86,1.49,.18,1.82,.61,1.65,2.07-.81,6.72-1.64,13.44-2.45,20.16-.03,.22-.03,.43-.04,.7,.27,.05,.5,.09,.74,.14,1.4,.31,2.31,1.46,2.21,2.88-.06,.88-.17,1.76-.33,2.63-.26,1.37-1.49,2.22-2.95,2.05-4.72-.56-9.44-1.15-14.15-1.72-7.46-.91-14.92-1.82-22.38-2.73-5.73-.7-11.46-1.4-17.2-2.1-.38-.05-.77-.06-1.16-.08-1.68-.07-2.82-1.31-2.72-3,.04-.72,.14-1.43,.24-2.14,.25-1.75,1.41-2.66,3.17-2.52,.13,.01,.27,0,.51,0Zm17.99,2.24c.07-.45,.13-.82,.18-1.2,.63-5.18,1.25-10.36,1.89-15.53,.21-1.69-.49-2.87-1.88-3.05-1.41-.18-2.39,.73-2.63,2.43-.01,.08-.02,.16-.03,.25-.48,3.94-.96,7.89-1.44,11.83-.19,1.55-.37,3.1-.56,4.72l4.46,.55Zm-11.13-1.35c.06-.31,.12-.52,.15-.74,.34-2.8,.69-5.6,1.03-8.39,.32-2.63,.65-5.27,.96-7.9,.2-1.7-.98-2.96-2.56-2.74-1.17,.16-1.82,1.05-2.02,2.67-.47,3.95-.96,7.9-1.44,11.85-.19,1.55-.37,3.1-.56,4.7l4.44,.55Zm22.24,2.71c.07-.46,.13-.81,.18-1.16,.25-2.03,.49-4.06,.74-6.09,.41-3.32,.83-6.64,1.23-9.96,.15-1.28-.7-2.38-1.93-2.58-1.21-.19-2.32,.65-2.55,1.95-.05,.3-.09,.6-.13,.9-.47,3.87-.95,7.73-1.42,11.6-.19,1.58-.38,3.16-.57,4.79l4.47,.54Zm11.14,1.36c.24-2.02,.47-3.93,.71-5.84,.47-3.78,.94-7.57,1.4-11.35,.15-1.28-.67-2.37-1.92-2.59-1.15-.2-2.27,.61-2.54,1.85-.06,.3-.1,.6-.14,.9-.48,3.92-.97,7.84-1.45,11.76-.19,1.55-.36,3.11-.55,4.73l4.49,.54Zm6.62,.82l4.5,.52c.72-5.85,1.43-11.58,2.11-17.31,.14-1.19-.71-2.24-1.89-2.44-1.11-.19-2.23,.52-2.54,1.65-.09,.32-.12,.65-.16,.98-.48,3.92-.96,7.84-1.44,11.76-.19,1.59-.38,3.17-.58,4.84Z"/><path class="i" d="M641.32,680.99c.39-3.15,.77-6.22,1.14-9.3,.45-3.73,.89-7.46,1.34-11.19,.13-1.1,.7-1.52,1.93-1.37,4.17,.5,8.34,1.02,12.51,1.53,6.22,.76,12.45,1.5,18.68,2.26,5.13,.63,10.25,1.27,15.38,1.91,1.37,.17,2.74,.32,4.11,.51,1.18,.17,1.54,.7,1.39,1.88-.8,6.47-1.58,12.95-2.37,19.42-.04,.3-.04,.6-.07,.95,.32,.07,.61,.13,.9,.2,1.27,.32,2.13,1.47,2.04,2.77-.06,.83-.15,1.65-.28,2.47-.24,1.53-1.48,2.48-3.02,2.29-8.59-1.04-17.17-2.09-25.75-3.14-7.9-.96-15.8-1.93-23.7-2.88-1.92-.23-3.84-.44-5.76-.67-1.53-.19-2.55-1.51-2.38-3.05,.07-.63,.16-1.26,.24-1.89,.24-1.89,1.26-2.75,3.19-2.69,.13,0,.27,0,.49,0Zm29.09,3.6c.05-.22,.09-.38,.11-.54,.38-3.04,.76-6.08,1.13-9.12,.29-2.33,.59-4.66,.84-6.99,.14-1.29-.75-2.34-2-2.51-1.12-.15-2.26,.75-2.48,1.95-.05,.27-.09,.55-.12,.82-.43,3.53-.87,7.07-1.3,10.61-.21,1.72-.41,3.44-.62,5.25,1.53,.19,2.97,.36,4.44,.54Zm11.15,1.36c.33-2.72,.65-5.32,.97-7.92,.35-2.88,.72-5.75,1.06-8.63,.16-1.34-.69-2.42-1.98-2.61-1.17-.17-2.27,.71-2.51,2.01-.05,.27-.08,.55-.11,.82-.48,3.92-.96,7.84-1.44,11.76-.16,1.33-.3,2.66-.46,4.03l4.48,.54Zm-22.31-2.74c.07-.18,.12-.25,.13-.33,.66-5.39,1.33-10.79,1.98-16.18,.16-1.37-.68-2.45-1.95-2.6-1.3-.15-2.35,.66-2.53,2.05-.56,4.35-1.09,8.7-1.62,13.06-.14,1.14-.26,2.28-.4,3.5l4.4,.52Zm33.39,4.09c.04-.29,.08-.5,.11-.71,.63-5.15,1.25-10.31,1.89-15.46,.2-1.64-.5-2.78-1.88-2.96-1.39-.18-2.38,.7-2.62,2.34-.02,.11-.03,.22-.04,.33-.49,4-.98,8-1.47,12-.16,1.28-.29,2.56-.45,3.91,1.54,.19,2.98,.37,4.46,.55Zm-44.42-5.43c.69-5.63,1.38-11.13,2.02-16.64,.15-1.3-.75-2.38-1.98-2.52-1.19-.14-2.34,.75-2.5,2.02-.57,4.43-1.1,8.87-1.64,13.31-.13,1.08-.25,2.16-.38,3.28l4.48,.54Z"/><path class="i" d="M696.07,593.76c2.67,.33,5.24,.64,7.82,.96,1.21,.15,2.42,.26,3.61,.48,1.17,.21,1.97,1.18,2.1,2.38,.12,1.08-.45,2.18-1.48,2.65-.43,.2-.97,.31-1.43,.26-5.49-.64-10.97-1.32-16.45-1.99-6.61-.81-13.22-1.62-19.82-2.43-6.03-.74-12.07-1.47-18.1-2.2-.27-.03-.55-.04-.83-.06-1.56-.15-2.65-1.41-2.53-2.93,.11-1.48,1.36-2.6,2.89-2.47,1.73,.14,3.46,.4,5.19,.6,2.02,.24,4.04,.49,6.15,.74,.24-1.92,.47-3.78,.7-5.64,.51-4.22,1-8.45,1.54-12.67,.27-2.14,1.84-3.34,4.04-3.08,5.19,.61,10.37,1.26,15.55,1.9,3.35,.41,6.69,.83,10.04,1.22,2.19,.26,3.46,1.79,3.2,4-.7,5.84-1.42,11.68-2.13,17.52-.03,.21-.03,.43-.05,.75Zm-3.28-.4c.06-.15,.1-.22,.11-.3,.55-4.41,1.12-8.81,1.59-13.23,.06-.59-.31-1.34-.7-1.84-.52-.67-1.34-.84-2.18-.54-1.06,.38-1.52,1.2-1.65,2.27-.39,3.18-.78,6.35-1.16,9.53-.14,1.17-.27,2.34-.41,3.57l4.4,.54Zm-11.03-1.35c.57-4.64,1.15-9.16,1.63-13.69,.06-.54-.33-1.22-.7-1.68-.54-.67-1.36-.83-2.19-.55-1.03,.35-1.52,1.14-1.64,2.19-.51,4.14-1.01,8.28-1.51,12.43-.03,.23,0,.48,0,.77l4.42,.53Zm-11.11-1.36c.17-1.34,.31-2.52,.46-3.69,.4-3.28,.82-6.57,1.2-9.86,.14-1.18-.73-2.27-1.88-2.45-1.18-.19-2.25,.52-2.56,1.7-.08,.29-.11,.6-.15,.9-.32,2.6-.64,5.2-.95,7.8-.2,1.66-.4,3.33-.6,5.05l4.49,.54Z"/></g></g><g id="f"><path class="i" d="M1099.2,590.76l1.54-.51c-.16-.83,.47-.75,1.03-.75,1.46,0,2.91,0,4.49,0-.16-.26-.27-.43-.36-.6-.32-.6-.2-1.02,.53-1.02,2.13,0,4.26-.02,6.38,.07,1.47,.06,2.6,1,3.69,1.84,.62,.48,1.31,.59,1.82,.34,.66-.32,1.2-.13,1.79-.09,3.53,.27,7.05,.74,10.62,.4,2.68-.26,5.39-.22,8.09-.36,1.91-.1,3.63-.85,5.27-1.78,1.05-.6,2.08-.95,3.34-.62,1.86,.49,3.63-.3,5.42-.64,3.55-.67,7.09-1.37,10.72-1.47,1.21-.03,2.42-.44,3.62-.75,.21-.05,.47-.41,.5-.65,.4-3.27,.75-6.55,1.14-9.82,.29-2.42,.34-4.92,1.03-7.23,1.33-4.44,6.5-5.53,10.1-2.39,1.38,1.2,1.85,3.13,1.99,4.94,.27,3.44,.37,6.9,.52,10.36,.07,1.64,.1,3.29,.15,4.97,1.91,.13,3.68,.35,5.45,.36,3.2,.02,6.16,1,9.13,2.03,3.54,1.23,7.17,2.14,10.92,2.36,1.13,.07,2.27-.41,3.42-.5,2.81-.21,5.63-.39,8.45-.49,2.68-.09,5.32-.28,7.84-1.29,.63-.25,1.36-.33,2.05-.37,.31-.02,.68,.43,.96,.36,.63-.14,1.39-.31,1.8-.74,1.43-1.49,3.32-1.93,5.17-2.39,1.77-.44,3.6-.66,5.42-.92,.17-.02,.5,.3,.55,.51,.07,.24-.09,.54-.2,1.05,1.24-.22,2.4-.42,3.56-.62,.53-.09,1.06-.23,1.59-.26,.22-.01,.47,.2,.69,.32,.22,.11,.41,.26,.63,.36,.37,.16,.76,.3,1.14,.45-.24,.37-.47,.76-.74,1.11-.1,.13-.33,.16-.57,.27,.56,.9,.06,1.22-.73,1.35-.55,.1-1.02,.24-1.39,.79-.27,.39-.88,.59-1.37,.8-4.51,1.89-9.26,2.56-14.11,2.74-.22,0-.44,.02-.67,.03-.95,.04-1.48,.46-1.76,1.46-.88,3.15-2.22,6.09-4.01,8.87-1.33,2.06-2.97,3-5.38,3.23-4.61,.43-9.2,1.07-13.79,1.69-1.05,.14-2.05,.59-3.07,.91-2.74,.87-5.48,1.75-8.23,2.62-.48,.15-.97,.29-1.51,.45,.13,2.4,.26,4.77,.4,7.14,.35,5.86,.71,11.72,1.07,17.59,.29,4.72,.6,9.44,.88,14.16,.11,1.87,.24,3.74,.22,5.61,0,.64-.29,1.39-.7,1.89-.41,.51-.65,.96-.63,1.6,.1,4.16,.19,8.31,.28,12.47,.02,1.11,.06,2.22,.03,3.33-.03,1.31-.15,1.42-1.48,1.6-.25,.03-.49,.06-.83,.1,.12,1.83,.23,3.63,.36,5.42,.29,3.86,.6,7.72,.89,11.58,.36,4.68,.7,9.37,1.05,14.05,.1,1.33,.19,2.66,.29,3.99h-41.39c.34-5.23,.69-10.45,1.01-15.68,.31-4.88,.6-9.76,.89-14.64,.3-5.13,.59-10.27,.88-15.4,.21-3.71,.43-7.42,.63-11.12,.01-.27-.13-.56-.26-.81-.26-.49-.73-.94-.81-1.45-.21-1.34-.39-2.71-.35-4.05,.09-2.85,.34-5.7,.5-8.56,.02-.28-.05-.7-.24-.83-1.26-.91-1.56-2.08-1.12-3.51,.03-.11-.02-.24-.03-.34-1.97-.3-2.25-.6-2.15-2.07,.35-5.13,.73-10.26,1.01-15.39,.12-2.14,.02-4.29,.02-6.31-1.31-.44-2.67-.84-3.99-1.36-2.21-.87-4.37-1.87-6.59-2.69-.8-.29-1.74-.34-2.6-.31-3.33,.14-6.66,.34-9.98,.54-2.15,.13-3.78-.74-5.12-2.37-2.46-2.98-4.45-6.23-6.09-9.72-.13-.27-.33-.67-.53-.7-1.09-.14-2.25-.43-3.28-.2-2,.45-3.97,.4-5.95,.12-2.22-.32-4.42-.89-6.65-1.05-1.4-.1-2.13-1.22-3.29-1.61-.15-.05-.15-.56-.23-.87l-.81-.35v-.57Z"/></g><path class="l" d="M0,712.43c-.05-9.29,30.31-30.73,36.37-35.8,24.18-20.25,51.45-37.63,80.3-50.45,56.08-24.92,120.14-33.39,180.3-19.91,10.18,2.28,20.23,5.19,30.05,8.72,61.83,22.25,112.86,67.18,172.52,94.72,96.28,44.44,210.77,40.03,309.63,1.67,50.55-19.61,98.69-47.86,152.37-55.49,47.43-6.74,95.72,3.26,141.36,17.78,78.22,24.89,151.8,63.04,230.46,86.47,62.49,18.61,130.67,27.62,194.75,11.63,28.67-7.16,52.18-21.81,78.26-34.9,24.89-12.48,49.48-25.55,74.44-37.9,75.26-37.24,155.01-67.16,240.1-67.16v265.88H.92L0,712.43Z"/></g></g></g></svg>